<svg width="116" height="116" viewBox="0 0 116 116" fill="none" xmlns="http://www.w3.org/2000/svg">
<g filter="url(#filter0_i_2002_44)">
<g clip-path="url(#clip0_2002_44)">
<path d="M0 59H115V90.4C115 99.3608 115 103.841 113.256 107.264C111.722 110.274 109.274 112.722 106.264 114.256C102.841 116 98.3608 116 89.4 116H25.6C16.6392 116 12.1587 116 8.73615 114.256C5.72556 112.722 3.27787 110.274 1.7439 107.264C0 103.841 0 99.3608 0 90.4V59Z" fill="#1A1A1A"/>
<path d="M58 99.6582C52.457 99.6582 47.264 98.6084 42.4209 96.5088C37.5778 94.4372 33.3086 91.5677 29.6133 87.9004C25.946 84.2051 23.0625 79.9359 20.9629 75.0928C18.8913 70.2497 17.8555 65.0566 17.8555 59.5137C17.8555 53.9707 18.8913 48.7777 20.9629 43.9346C23.0625 39.0635 25.946 34.7943 29.6133 31.127C33.3086 27.4316 37.5778 24.5482 42.4209 22.4766C47.264 20.377 52.457 19.3271 58 19.3271C63.543 19.3271 68.736 20.377 73.5791 22.4766C78.4502 24.5482 82.7194 27.4316 86.3867 31.127C90.082 34.7943 92.9655 39.0635 95.0371 43.9346C97.1087 48.7777 98.1445 53.9707 98.1445 59.5137C98.1445 65.0566 97.1087 70.2497 95.0371 75.0928C92.9655 79.9359 90.082 84.2051 86.3867 87.9004C82.7194 91.5677 78.4502 94.4372 73.5791 96.5088C68.736 98.6084 63.543 99.6582 58 99.6582ZM58 92.4775C62.5352 92.4775 66.7904 91.6237 70.7656 89.916C74.7689 88.2083 78.2822 85.8428 81.3057 82.8193C84.3291 79.7959 86.6947 76.2965 88.4023 72.3213C90.11 68.318 90.9639 64.0488 90.9639 59.5137C90.9639 54.9505 90.11 50.6813 88.4023 46.7061C86.6947 42.7308 84.3291 39.2314 81.3057 36.208C78.2822 33.1846 74.7689 30.819 70.7656 29.1113C66.7904 27.4036 62.5352 26.5498 58 26.5498C53.4368 26.5498 49.1676 27.4036 45.1924 29.1113C41.2171 30.819 37.7178 33.1846 34.6943 36.208C31.6709 39.2314 29.3053 42.7308 27.5977 46.7061C25.89 50.6813 25.0361 54.9505 25.0361 59.5137C25.0361 64.0488 25.89 68.318 27.5977 72.3213C29.3053 76.2965 31.6709 79.7959 34.6943 82.8193C37.7178 85.8428 41.2171 88.2083 45.1924 89.916C49.1676 91.6237 53.4368 92.4775 58 92.4775ZM23.5244 30.1191C22.9925 30.1191 22.5166 29.9792 22.0967 29.6992C21.6768 29.3913 21.3548 28.9714 21.1309 28.4395C20.9069 27.9635 20.7249 27.3617 20.585 26.6338C20.473 25.9059 20.417 25.1501 20.417 24.3662C20.417 22.1826 20.9349 20.209 21.9707 18.4453C23.0345 16.6536 24.4622 15.2259 26.2539 14.1621C28.0456 13.0983 30.0332 12.5664 32.2168 12.5664C33.4766 12.5664 34.7503 12.7624 36.0381 13.1543C37.3258 13.5182 38.3757 14.0641 39.1875 14.792C39.9434 15.4919 40.3213 16.2477 40.3213 17.0596C40.3213 17.7874 39.9714 18.4173 39.2715 18.9492L25.2041 29.5732C24.8962 29.7972 24.6162 29.9512 24.3643 30.0352C24.1123 30.0911 23.8324 30.1191 23.5244 30.1191ZM92.4756 30.1191C92.1676 30.1191 91.8877 30.0911 91.6357 30.0352C91.3838 29.9512 91.1038 29.7972 90.7959 29.5732L76.7705 18.9492C76.0426 18.4173 75.6787 17.7874 75.6787 17.0596C75.6787 16.2477 76.0566 15.4919 76.8125 14.792C77.6243 14.0641 78.6742 13.5182 79.9619 13.1543C81.2497 12.7624 82.5234 12.5664 83.7832 12.5664C85.9668 12.5664 87.9544 13.0983 89.7461 14.1621C91.5378 15.2259 92.9515 16.6536 93.9873 18.4453C95.0511 20.209 95.583 22.1826 95.583 24.3662C95.583 25.1501 95.527 25.9199 95.415 26.6758C95.3031 27.4036 95.1351 27.9915 94.9111 28.4395C94.6592 28.9434 94.3232 29.3493 93.9033 29.6572C93.4834 29.9652 93.0075 30.1191 92.4756 30.1191ZM22.8945 98.4404C22.2786 97.8525 21.9707 97.1107 21.9707 96.2148C21.9707 95.319 22.2926 94.5492 22.9365 93.9053L30.915 86.0107L35.4502 90.5039L27.5137 98.3984C26.8698 99.0703 26.0859 99.4062 25.1621 99.4062C24.2663 99.4062 23.5104 99.0843 22.8945 98.4404ZM93.1055 98.4404C92.4896 99.0843 91.7197 99.4062 90.7959 99.4062C89.9001 99.4062 89.1302 99.0703 88.4863 98.3984L80.5918 90.5039L85.085 86.0107L93.0635 93.9053C93.7354 94.5492 94.0573 95.319 94.0293 96.2148C94.0293 97.1107 93.7214 97.8525 93.1055 98.4404ZM38.8936 64.1328C38.0817 64.1328 37.3958 63.8529 36.8359 63.293C36.276 62.7331 35.9961 62.0472 35.9961 61.2354C35.9961 60.3955 36.276 59.6956 36.8359 59.1357C37.3958 58.5758 38.0817 58.2959 38.8936 58.2959H55.0605V35.7881C55.0605 34.9482 55.3405 34.2484 55.9004 33.6885C56.4603 33.1286 57.1462 32.8486 57.958 32.8486C58.7979 32.8486 59.4977 33.1286 60.0576 33.6885C60.6175 34.2484 60.8975 34.9482 60.8975 35.7881V61.2354C60.8975 62.0472 60.6175 62.7331 60.0576 63.293C59.4977 63.8529 58.7979 64.1328 57.958 64.1328H38.8936Z" fill="white"/>
</g>
<g filter="url(#filter1_i_2002_44)">
<g clip-path="url(#clip1_2002_44)">
<path d="M0 25.6C0 16.6392 0 12.1587 1.7439 8.73615C3.27787 5.72556 5.72556 3.27787 8.73615 1.7439C12.1587 0 16.6392 0 25.6 0H89.4C98.3608 0 102.841 0 106.264 1.7439C109.274 3.27787 111.722 5.72556 113.256 8.73615C115 12.1587 115 16.6392 115 25.6V57H0V25.6Z" fill="#1A1A1A"/>
<path d="M58 99.6582C52.457 99.6582 47.264 98.6084 42.4209 96.5088C37.5778 94.4372 33.3086 91.5677 29.6133 87.9004C25.946 84.2051 23.0625 79.9359 20.9629 75.0928C18.8913 70.2497 17.8555 65.0566 17.8555 59.5137C17.8555 53.9707 18.8913 48.7777 20.9629 43.9346C23.0625 39.0635 25.946 34.7943 29.6133 31.127C33.3086 27.4316 37.5778 24.5482 42.4209 22.4766C47.264 20.377 52.457 19.3271 58 19.3271C63.543 19.3271 68.736 20.377 73.5791 22.4766C78.4502 24.5482 82.7194 27.4316 86.3867 31.127C90.082 34.7943 92.9655 39.0635 95.0371 43.9346C97.1087 48.7777 98.1445 53.9707 98.1445 59.5137C98.1445 65.0566 97.1087 70.2497 95.0371 75.0928C92.9655 79.9359 90.082 84.2051 86.3867 87.9004C82.7194 91.5677 78.4502 94.4372 73.5791 96.5088C68.736 98.6084 63.543 99.6582 58 99.6582ZM58 92.4775C62.5352 92.4775 66.7904 91.6237 70.7656 89.916C74.7689 88.2083 78.2822 85.8428 81.3057 82.8193C84.3291 79.7959 86.6947 76.2965 88.4023 72.3213C90.11 68.318 90.9639 64.0488 90.9639 59.5137C90.9639 54.9505 90.11 50.6813 88.4023 46.7061C86.6947 42.7308 84.3291 39.2314 81.3057 36.208C78.2822 33.1846 74.7689 30.819 70.7656 29.1113C66.7904 27.4036 62.5352 26.5498 58 26.5498C53.4368 26.5498 49.1676 27.4036 45.1924 29.1113C41.2171 30.819 37.7178 33.1846 34.6943 36.208C31.6709 39.2314 29.3053 42.7308 27.5977 46.7061C25.89 50.6813 25.0361 54.9505 25.0361 59.5137C25.0361 64.0488 25.89 68.318 27.5977 72.3213C29.3053 76.2965 31.6709 79.7959 34.6943 82.8193C37.7178 85.8428 41.2171 88.2083 45.1924 89.916C49.1676 91.6237 53.4368 92.4775 58 92.4775ZM23.5244 30.1191C22.9925 30.1191 22.5166 29.9792 22.0967 29.6992C21.6768 29.3913 21.3548 28.9714 21.1309 28.4395C20.9069 27.9635 20.7249 27.3617 20.585 26.6338C20.473 25.9059 20.417 25.1501 20.417 24.3662C20.417 22.1826 20.9349 20.209 21.9707 18.4453C23.0345 16.6536 24.4622 15.2259 26.2539 14.1621C28.0456 13.0983 30.0332 12.5664 32.2168 12.5664C33.4766 12.5664 34.7503 12.7624 36.0381 13.1543C37.3258 13.5182 38.3757 14.0641 39.1875 14.792C39.9434 15.4919 40.3213 16.2477 40.3213 17.0596C40.3213 17.7874 39.9714 18.4173 39.2715 18.9492L25.2041 29.5732C24.8962 29.7972 24.6162 29.9512 24.3643 30.0352C24.1123 30.0911 23.8324 30.1191 23.5244 30.1191ZM92.4756 30.1191C92.1676 30.1191 91.8877 30.0911 91.6357 30.0352C91.3838 29.9512 91.1038 29.7972 90.7959 29.5732L76.7705 18.9492C76.0426 18.4173 75.6787 17.7874 75.6787 17.0596C75.6787 16.2477 76.0566 15.4919 76.8125 14.792C77.6243 14.0641 78.6742 13.5182 79.9619 13.1543C81.2497 12.7624 82.5234 12.5664 83.7832 12.5664C85.9668 12.5664 87.9544 13.0983 89.7461 14.1621C91.5378 15.2259 92.9515 16.6536 93.9873 18.4453C95.0511 20.209 95.583 22.1826 95.583 24.3662C95.583 25.1501 95.527 25.9199 95.415 26.6758C95.3031 27.4036 95.1351 27.9915 94.9111 28.4395C94.6592 28.9434 94.3232 29.3493 93.9033 29.6572C93.4834 29.9652 93.0075 30.1191 92.4756 30.1191ZM22.8945 98.4404C22.2786 97.8525 21.9707 97.1107 21.9707 96.2148C21.9707 95.319 22.2926 94.5492 22.9365 93.9053L30.915 86.0107L35.4502 90.5039L27.5137 98.3984C26.8698 99.0703 26.0859 99.4062 25.1621 99.4062C24.2663 99.4062 23.5104 99.0843 22.8945 98.4404ZM93.1055 98.4404C92.4896 99.0843 91.7197 99.4062 90.7959 99.4062C89.9001 99.4062 89.1302 99.0703 88.4863 98.3984L80.5918 90.5039L85.085 86.0107L93.0635 93.9053C93.7354 94.5492 94.0573 95.319 94.0293 96.2148C94.0293 97.1107 93.7214 97.8525 93.1055 98.4404ZM38.8936 64.1328C38.0817 64.1328 37.3958 63.8529 36.8359 63.293C36.276 62.7331 35.9961 62.0472 35.9961 61.2354C35.9961 60.3955 36.276 59.6956 36.8359 59.1357C37.3958 58.5758 38.0817 58.2959 38.8936 58.2959H55.0605V35.7881C55.0605 34.9482 55.3405 34.2484 55.9004 33.6885C56.4603 33.1286 57.1462 32.8486 57.958 32.8486C58.7979 32.8486 59.4977 33.1286 60.0576 33.6885C60.6175 34.2484 60.8975 34.9482 60.8975 35.7881V61.2354C60.8975 62.0472 60.6175 62.7331 60.0576 63.293C59.4977 63.8529 58.7979 64.1328 57.958 64.1328H38.8936Z" fill="white"/>
</g>
</g>
</g>
<defs>
<filter id="filter0_i_2002_44" x="0" y="0" width="117" height="117" filterUnits="userSpaceOnUse" color-interpolation-filters="sRGB">
<feFlood flood-opacity="0" result="BackgroundImageFix"/>
<feBlend mode="normal" in="SourceGraphic" in2="BackgroundImageFix" result="shape"/>
<feColorMatrix in="SourceAlpha" type="matrix" values="0 0 0 0 0 0 0 0 0 0 0 0 0 0 0 0 0 0 127 0" result="hardAlpha"/>
<feOffset dx="1" dy="1"/>
<feGaussianBlur stdDeviation="1"/>
<feComposite in2="hardAlpha" operator="arithmetic" k2="-1" k3="1"/>
<feColorMatrix type="matrix" values="0 0 0 0 1 0 0 0 0 1 0 0 0 0 1 0 0 0 0.25 0"/>
<feBlend mode="normal" in2="shape" result="effect1_innerShadow_2002_44"/>
</filter>
<filter id="filter1_i_2002_44" x="0" y="0" width="116" height="58" filterUnits="userSpaceOnUse" color-interpolation-filters="sRGB">
<feFlood flood-opacity="0" result="BackgroundImageFix"/>
<feBlend mode="normal" in="SourceGraphic" in2="BackgroundImageFix" result="shape"/>
<feColorMatrix in="SourceAlpha" type="matrix" values="0 0 0 0 0 0 0 0 0 0 0 0 0 0 0 0 0 0 127 0" result="hardAlpha"/>
<feOffset dx="1" dy="1"/>
<feGaussianBlur stdDeviation="1"/>
<feComposite in2="hardAlpha" operator="arithmetic" k2="-1" k3="1"/>
<feColorMatrix type="matrix" values="0 0 0 0 1 0 0 0 0 1 0 0 0 0 1 0 0 0 0.25 0"/>
<feBlend mode="normal" in2="shape" result="effect1_innerShadow_2002_44"/>
</filter>
<clipPath id="clip0_2002_44">
<path d="M0 59H115V90.4C115 99.3608 115 103.841 113.256 107.264C111.722 110.274 109.274 112.722 106.264 114.256C102.841 116 98.3608 116 89.4 116H25.6C16.6392 116 12.1587 116 8.73615 114.256C5.72556 112.722 3.27787 110.274 1.7439 107.264C0 103.841 0 99.3608 0 90.4V59Z" fill="white"/>
</clipPath>
<clipPath id="clip1_2002_44">
<path d="M0 25.6C0 16.6392 0 12.1587 1.7439 8.73615C3.27787 5.72556 5.72556 3.27787 8.73615 1.7439C12.1587 0 16.6392 0 25.6 0H89.4C98.3608 0 102.841 0 106.264 1.7439C109.274 3.27787 111.722 5.72556 113.256 8.73615C115 12.1587 115 16.6392 115 25.6V57H0V25.6Z" fill="white"/>
</clipPath>
</defs>
</svg>
